<?xml version="1.0" encoding="UTF-8"?>
<!DOCTYPE svg PUBLIC "-//W3C//DTD SVG 1.1//EN" "http://www.w3.org/Graphics/SVG/1.1/DTD/svg11.dtd">
<!-- Creator: CorelDRAW -->
<svg xmlns="http://www.w3.org/2000/svg" xml:space="preserve" width="208.931mm" height="41.1667mm" version="1.1" style="shape-rendering:geometricPrecision; text-rendering:geometricPrecision; image-rendering:optimizeQuality; fill-rule:evenodd; clip-rule:evenodd"
viewBox="0 0 9828.01 1936.46"
 xmlns:xlink="http://www.w3.org/1999/xlink"
 xmlns:xodm="http://www.corel.com/coreldraw/odm/2003">
 <defs>
  <style type="text/css">
   <![CDATA[
    .fil0 {fill:black}
   ]]>
  </style>
 </defs>
 <g id="Слой_x0020_1">
  <metadata id="CorelCorpID_0Corel-Layer"/>
  <path class="fil0" d="M186.75 834.14c-35.49,-44.4 -19.31,-369.08 -11.53,-423.32 251.53,-59.35 723.8,0.57 489.28,356.49 -78.26,118.76 -324.85,70.09 -477.75,66.83zm2721.3 -458.6l184.68 3.04 0 -180.39 -184.69 1.26 0.01 176.09zm5705.54 1401.21c105.6,-37.39 368.64,-134.95 377.46,-254.11 -282.22,88.82 -341.69,90.84 -377.46,254.11zm-5536.1 -1230.08l-149.35 4.15 0 914.77 149.04 0 0.32 -918.93zm5622.11 1007.08c102.7,-24.03 236.01,-87.92 345.71,-122.34 206.98,-64.96 135.31,-28.99 238.9,-209.11 194.06,-337.45 150.18,-196.81 116.53,-725.42 -100.83,19.55 -646.24,863.47 -701.13,1056.87zm237.59 -1128.43c78.38,-11.61 457.91,-88.76 504.09,-71.25 30.11,11.43 22.47,-17.5 33.29,49.17l16.39 468.06c261.5,-324.59 359.1,-349.65 332.95,-615.07 -43.44,-440.85 -552.68,-184.96 -585.52,-157.95 -78.19,64.31 -247.73,233.54 -301.21,327.04zm-5649.47 123.84l0 916.43 149.35 0c0,-117.52 -24.74,-543.67 17.74,-611.25 27.9,-213.34 343.53,-244.84 398.07,-37.47 43.95,167.1 -17.61,479.44 20.32,659.1l156.1 0c25.38,-139.3 19.9,-678.28 -31.83,-786.47 -92.79,-194.05 -337.49,-226.99 -552.12,-60.7l-2.12 -80.11 -155.5 0.48zm5127.71 1387.3c75.5,-21.09 91.27,-138 118.02,-203.28 232.86,-568.33 448,-844.25 795.72,-1301.62 -487.97,37.35 -512.8,69.6 -802.59,498.24 -86.54,142.75 80.94,247.16 -3.03,510.77 -25.61,84.78 -149.69,429.05 -108.12,495.89zm-2983.91 -1238.35c369.51,-151.02 458.31,519.89 177.84,633.39 -350.64,141.9 -488.96,-506.23 -177.84,-633.39zm501.43 419.01c112.31,-679.04 -721.58,-808.96 -827.38,-222.3 -123.54,685.02 724.75,842.82 827.38,222.3zm451.79 -423.08c378.8,-147.04 443.95,537.76 173.09,639.51 -372.85,140.06 -463.17,-526.91 -173.09,-639.51zm-333.04 406.49c75.95,607.3 932.48,517.58 833.74,-181.07 -85.92,-607.91 -919.05,-501.09 -833.74,181.07zm-4741.84 -405.52c386.52,-135.33 450.12,542.54 169.87,638.92 -383.95,132.05 -446.19,-542.17 -169.87,-638.92zm-326.71 438.71c93.26,577.61 960.53,467.86 824,-246.01 -109.43,-572.18 -938.82,-465.15 -824,246.01zm3397.73 339.08c0,-413.36 -76.6,-788.59 217.96,-792.15 318,-3.84 157.54,430.88 208.31,794.84l161.87 -4.62c14.21,-159.82 23.21,-672.61 -37.05,-786.68 -106.23,-201.07 -404.63,-211.59 -550.04,-51.4l-1.03 -433.21 -170.11 -1.37 0 1278.29 170.08 -3.71zm-1787.55 -339.08c-30.88,146.17 -155.24,264.4 -335.9,200.15 -165.32,-58.8 -154.97,-266.06 -135.79,-449.89 34.74,-333.03 584.03,-282.07 471.68,249.74zm-470.33 272.16c116.17,65.54 244.34,167.89 462.19,37.42 241.28,-144.51 264.75,-669.08 4.55,-855.82 -123.9,-88.91 -369,-83.9 -441.55,29.37 -22.52,28.54 33.87,27.02 -38.69,21.8l0 -423.38 -149.35 0 0 1250.35 138.26 0 1.77 -74.75 22.82 15.02zm5210.66 -710.87c194.47,-65.67 315.66,55.34 318.91,238.72 3.49,197.07 19.27,360.32 -159.01,406.08 -386.9,99.3 -424.32,-555.5 -159.91,-644.79zm315.3 -62.23c-559.75,-438.07 -893.2,535.21 -446.65,818.28 198.8,126.02 353.87,7.09 464.28,-55.9 1.17,59.07 -10.72,42.83 18.67,80.84l136.36 0 0.55 -1277.78 -169.79 0 -3.41 434.57zm-7648.96 836.86l167.09 0 9.05 -477.08c445.14,-48.8 523.35,70.5 522.83,473.05l149.35 0c-6.95,-493.69 16.09,-355.97 -166.98,-549.69 226.15,-76.89 292.49,-392.62 104.47,-565.92 -159.69,-147.2 -538.06,-99.93 -783.75,-99.93l-2.06 1219.57z"/>
 </g>
</svg>
